<svg width="134" height="32" viewBox="0 0 134 32" fill="none" xmlns="http://www.w3.org/2000/svg">
<path d="M8.77526 25.4902C7.14922 25.4902 5.70392 25.264 4.43984 24.8122C3.17475 24.3603 1.96719 23.6145 0.815622 22.5753C0.566676 22.395 0.380349 22.1744 0.25664 21.9146C0.132422 21.6553 0.0703125 21.3894 0.0703125 21.1179C0.0703125 20.689 0.228131 20.3043 0.544276 19.9656C0.860422 19.6268 1.25548 19.4572 1.72995 19.4572C2.0909 19.4572 2.42944 19.5815 2.7461 19.8301C3.60391 20.6212 4.50144 21.2198 5.43868 21.6263C6.37541 22.0328 7.47606 22.2366 8.74115 22.2366C9.64428 22.2366 10.4741 22.0899 11.2306 21.7959C11.9871 21.5025 12.5909 21.1072 13.043 20.6095C13.4945 20.1128 13.7206 19.5367 13.7206 18.881C13.7206 18.0675 13.4889 17.3956 13.0262 16.8643C12.5629 16.3334 11.897 15.8928 11.028 15.5423C10.1585 15.1924 9.11432 14.8928 7.89504 14.6442C6.76537 14.441 5.75533 14.1587 4.86341 13.7971C3.97097 13.4359 3.20886 12.9784 2.57708 12.4242C1.94428 11.871 1.4586 11.2097 1.12006 10.4415C0.781513 9.67384 0.611986 8.78084 0.611986 7.76404C0.611986 6.38607 0.972931 5.19964 1.69584 4.20526C2.41824 3.21088 3.40079 2.44268 4.64297 1.90015C5.88464 1.35762 7.28515 1.08661 8.84297 1.08661C10.2654 1.08661 11.5977 1.30668 12.8398 1.74732C14.0815 2.18797 15.0865 2.78093 15.8547 3.52671C16.3969 4.00098 16.6677 4.50938 16.6677 5.05191C16.6677 5.45842 16.5038 5.83743 16.1764 6.1874C15.8491 6.53787 15.4703 6.7126 15.0417 6.7126C14.725 6.7126 14.4542 6.62244 14.2286 6.4416C13.8672 6.05749 13.382 5.71313 12.7721 5.40799C12.1622 5.10285 11.5132 4.84865 10.8244 4.64539C10.135 4.44214 9.47475 4.34025 8.84297 4.34025C7.82682 4.34025 6.9573 4.48187 6.2349 4.76409C5.51199 5.04681 4.95861 5.43091 4.57526 5.91639C4.1909 6.40237 3.99948 6.97292 3.99948 7.62803C3.99948 8.39623 4.21991 9.02943 4.65977 9.52611C5.10013 10.0233 5.71512 10.4242 6.50573 10.7294C7.29584 11.0345 8.19948 11.3116 9.21563 11.5597C10.4573 11.8307 11.5697 12.1359 12.5522 12.4746C13.5348 12.8134 14.3646 13.2489 15.0417 13.7797C15.7193 14.3111 16.2385 14.9718 16.6 15.7624C16.9609 16.5535 17.1422 17.5367 17.1422 18.7109C17.1422 20.0664 16.7578 21.2529 15.9906 22.2697C15.2229 23.2865 14.2124 24.0776 12.959 24.642C11.7051 25.2075 10.3107 25.4902 8.77526 25.4902Z" fill="#121B45"/>
<path d="M29.9099 7.01825C31.4901 7.01825 32.8957 7.41407 34.1267 8.20468C35.3572 8.9958 36.3336 10.0747 37.0565 11.4415C37.7789 12.8088 38.1404 14.3961 38.1404 16.2035C38.1404 18.0115 37.7789 19.61 37.0565 20.9997C36.3336 22.3894 35.3628 23.4795 34.1435 24.2707C32.9242 25.0618 31.5466 25.4571 30.0112 25.4571C29.1529 25.4571 28.3399 25.3216 27.5727 25.0506C26.8049 24.7796 26.1273 24.4235 25.5404 23.9828C24.9529 23.5422 24.4733 23.0735 24.1007 22.5763C23.728 22.0797 23.4964 21.6161 23.4063 21.1866L24.3206 20.746V30.2023C24.3206 30.699 24.1567 31.1116 23.8293 31.4397C23.5015 31.7667 23.1013 31.9313 22.6268 31.9313C22.13 31.9313 21.7232 31.7672 21.4076 31.4397C21.0909 31.1121 20.9336 30.6995 20.9336 30.2023V8.98511C20.9336 8.51084 21.0914 8.10382 21.4076 7.76505C21.7237 7.42629 22.13 7.25666 22.6268 7.25666C23.1013 7.25666 23.5015 7.42629 23.8293 7.76505C24.1561 8.10382 24.3206 8.51084 24.3206 8.98511V11.3238L23.7784 11.0187C23.8461 10.5898 24.0604 10.1435 24.4219 9.67995C24.7828 9.21689 25.24 8.78185 25.7939 8.37482C26.3468 7.96831 26.9796 7.64076 27.6908 7.39216C28.4025 7.14255 29.1417 7.01825 29.9099 7.01825ZM29.5372 10.1364C28.4534 10.1364 27.51 10.4023 26.7087 10.9326C25.9069 11.4639 25.2802 12.1812 24.8287 13.0849C24.3766 13.9891 24.1511 15.0283 24.1511 16.203C24.1511 17.3553 24.3766 18.4006 24.8287 19.338C25.2802 20.2758 25.9069 21.0104 26.7087 21.5412C27.51 22.0725 28.4534 22.3379 29.5372 22.3379C30.5982 22.3379 31.5242 22.0725 32.3149 21.5412C33.105 21.0104 33.7317 20.2758 34.1949 19.338C34.6577 18.4006 34.8893 17.3553 34.8893 16.203C34.8893 15.0507 34.6577 14.0171 34.1949 13.1017C33.7317 12.1868 33.105 11.4639 32.3149 10.9326C31.5237 10.4023 30.5982 10.1364 29.5372 10.1364Z" fill="#121B45"/>
<path d="M62.1544 7.52667H70.1141C70.5657 7.52667 70.9439 7.67898 71.2489 7.98412C71.5538 8.28926 71.7061 8.66776 71.7061 9.11961C71.7061 9.54905 71.5538 9.91074 71.2489 10.2042C70.9439 10.4981 70.5657 10.6448 70.1141 10.6448H62.1544C61.7024 10.6448 61.3246 10.4925 61.0197 10.1873C60.7147 9.88221 60.5625 9.51543 60.5625 9.08599C60.5625 8.63414 60.7147 8.26125 61.0197 7.96731C61.3246 7.67389 61.7024 7.52667 62.1544 7.52667ZM65.711 3.12073C66.2073 3.12073 66.6141 3.28476 66.9302 3.61231C67.2464 3.94038 67.4047 4.3525 67.4047 4.84969V20.5764C67.4047 20.9829 67.4724 21.311 67.6079 21.559C67.7433 21.8082 67.9296 21.9773 68.1668 22.0674C68.4041 22.1581 68.6464 22.2029 68.8948 22.2029C69.1433 22.2029 69.3632 22.1581 69.5551 22.0674C69.7466 21.9773 69.9787 21.9319 70.2495 21.9319C70.5204 21.9319 70.7688 22.0562 70.9949 22.3048C71.2204 22.5539 71.3334 22.8927 71.3334 23.3216C71.3334 23.8642 71.0397 24.3043 70.4527 24.6436C69.8652 24.9823 69.2334 25.152 68.5558 25.152C68.1714 25.152 67.7199 25.1178 67.2011 25.0501C66.6813 24.9823 66.1788 24.8127 65.6937 24.5417C65.208 24.2707 64.8073 23.8356 64.4912 23.2366C64.1745 22.638 64.0172 21.7959 64.0172 20.7114V4.84918C64.0172 4.3525 64.1806 3.93987 64.5085 3.6118C64.8358 3.28476 65.237 3.12073 65.711 3.12073Z" fill="#121B45"/>
<path d="M75.2325 7.52667H83.1922C83.6437 7.52667 84.022 7.67898 84.3269 7.98412C84.6319 8.28926 84.7841 8.66776 84.7841 9.11961C84.7841 9.54905 84.6319 9.91074 84.3269 10.2042C84.022 10.4981 83.6437 10.6448 83.1922 10.6448H75.2325C74.7805 10.6448 74.4027 10.4925 74.0978 10.1873C73.7928 9.88221 73.6406 9.51543 73.6406 9.08599C73.6406 8.63414 73.7928 8.26125 74.0978 7.96731C74.4027 7.67389 74.781 7.52667 75.2325 7.52667ZM78.789 3.12073C79.2854 3.12073 79.6922 3.28476 80.0083 3.61231C80.3245 3.94038 80.4828 4.3525 80.4828 4.84969V20.5764C80.4828 20.9829 80.5505 21.311 80.6859 21.559C80.8213 21.8082 81.0077 21.9773 81.2449 22.0674C81.4821 22.1581 81.7245 22.2029 81.9729 22.2029C82.2213 22.2029 82.4413 22.1581 82.6332 22.0674C82.8246 21.9773 83.0567 21.9319 83.3276 21.9319C83.5984 21.9319 83.8468 22.0562 84.0729 22.3048C84.2984 22.5539 84.4114 22.8927 84.4114 23.3216C84.4114 23.8642 84.1177 24.3043 83.5307 24.6436C82.9432 24.9823 82.3114 25.152 81.6338 25.152C81.2495 25.152 80.7979 25.1178 80.2792 25.0501C79.7594 24.9823 79.2569 24.8127 78.7717 24.5417C78.2861 24.2707 77.8854 23.8356 77.5693 23.2366C77.2526 22.638 77.0953 21.7959 77.0953 20.7114V4.84918C77.0953 4.3525 77.2587 3.93987 77.5866 3.6118C77.9139 3.28476 78.3151 3.12073 78.789 3.12073Z" fill="#121B45"/>
<path d="M103.003 7.05238C103.478 7.05238 103.878 7.21641 104.206 7.54396C104.532 7.87203 104.697 8.28414 104.697 8.78133V23.423C104.697 23.9202 104.533 24.3328 104.206 24.6603C103.878 24.9884 103.478 25.1519 103.003 25.1519C102.506 25.1519 102.1 24.9884 101.784 24.6603C101.467 24.3333 101.31 23.9207 101.31 23.423V20.9829L101.988 21.0848C101.988 21.4913 101.824 21.9436 101.496 22.4403C101.168 22.9375 100.722 23.4179 100.158 23.8809C99.5938 24.3445 98.9274 24.7281 98.1602 25.0332C97.3925 25.3384 96.5682 25.4907 95.6875 25.4907C94.1292 25.4907 92.7292 25.0898 91.4875 24.2875C90.2453 23.4856 89.2633 22.3843 88.5409 20.9829C87.818 19.582 87.457 17.989 87.457 16.204C87.457 14.3737 87.818 12.7639 88.5409 11.3743C89.2633 9.98457 90.2397 8.89493 91.4707 8.1033C92.7012 7.31269 94.0732 6.91687 95.5862 6.91687C96.557 6.91687 97.4546 7.0753 98.2788 7.39114C99.103 7.70799 99.8198 8.11451 100.43 8.61119C101.04 9.10838 101.514 9.63359 101.852 10.1873C102.191 10.7411 102.36 11.2668 102.36 11.7635L101.31 11.8653V8.78082C101.31 8.30656 101.468 7.89953 101.784 7.56077C102.1 7.2215 102.506 7.05238 103.003 7.05238ZM96.0933 22.3721C97.1542 22.3721 98.0858 22.101 98.8877 21.5585C99.689 21.016 100.316 20.2763 100.768 19.3385C101.219 18.4011 101.445 17.3558 101.445 16.2035C101.445 15.0288 101.219 13.9784 100.768 13.0513C100.316 12.1251 99.689 11.3906 98.8877 10.848C98.0858 10.3055 97.1542 10.0345 96.0933 10.0345C95.0542 10.0345 94.1287 10.3055 93.3157 10.848C92.5026 11.3906 91.8703 12.1246 91.4188 13.0513C90.9667 13.9779 90.7412 15.0288 90.7412 16.2035C90.7412 17.3558 90.9667 18.4011 91.4188 19.3385C91.8703 20.2763 92.497 21.016 93.2989 21.5585C94.1002 22.101 95.0318 22.3721 96.0933 22.3721Z" fill="#121B45"/>
<path d="M118.383 6.91638C119.963 6.91638 121.368 7.3122 122.599 8.10281C123.83 8.89393 124.806 9.98408 125.529 11.3738C126.252 12.7635 126.613 14.3625 126.613 16.1699C126.613 17.9778 126.252 19.582 125.529 20.9829C124.806 22.3843 123.835 23.4857 122.616 24.2875C121.397 25.0898 120.019 25.4907 118.484 25.4907C117.626 25.4907 116.813 25.3491 116.045 25.0669C115.278 24.7847 114.6 24.423 114.013 23.9823C113.426 23.5417 112.946 23.073 112.573 22.5758C112.201 22.0792 111.969 21.6156 111.879 21.1861L112.793 20.7455V23.694C112.793 24.1683 112.629 24.5697 112.302 24.8972C111.974 25.2243 111.574 25.3888 111.099 25.3888C110.603 25.3888 110.196 25.2304 109.88 24.9146C109.564 24.5982 109.406 24.1917 109.406 23.6945V1.79878C109.406 1.3021 109.564 0.889475 109.88 0.561411C110.196 0.234366 110.603 0.0698242 111.099 0.0698242C111.574 0.0698242 111.974 0.233856 112.302 0.561411C112.629 0.889475 112.793 1.30159 112.793 1.79878V11.3228L112.251 11.0177C112.319 10.5888 112.533 10.1425 112.895 9.67894C113.255 9.21588 113.713 8.76964 114.267 8.3402C114.819 7.91127 115.452 7.56639 116.163 7.30659C116.875 7.04679 117.614 6.91638 118.383 6.91638ZM118.01 10.035C116.926 10.035 115.983 10.306 115.181 10.8486C114.38 11.3911 113.753 12.1196 113.301 13.035C112.849 13.9499 112.624 14.9957 112.624 16.1699C112.624 17.3451 112.849 18.4017 113.301 19.339C113.753 20.2768 114.38 21.0165 115.181 21.559C115.983 22.1016 116.926 22.3726 118.01 22.3726C119.071 22.3726 119.997 22.1016 120.788 21.559C121.578 21.0165 122.204 20.2712 122.668 19.3222C123.13 18.3731 123.362 17.3222 123.362 16.1699C123.362 14.9952 123.13 13.9499 122.668 13.035C122.204 12.1201 121.578 11.3911 120.788 10.8486C119.997 10.306 119.071 10.035 118.01 10.035Z" fill="#121B45"/>
<path d="M133.93 23.423C133.93 23.9202 133.767 24.3328 133.439 24.6604C133.112 24.9884 132.711 25.152 132.237 25.152C131.762 25.152 131.361 24.9884 131.034 24.6604C130.707 24.3333 130.543 23.9207 130.543 23.423V1.79878C130.543 1.3021 130.712 0.889475 131.051 0.561411C131.39 0.234366 131.796 0.0698242 132.27 0.0698242C132.767 0.0698242 133.168 0.233856 133.473 0.561411C133.778 0.889475 133.93 1.30159 133.93 1.79878V23.423H133.93Z" fill="#121B45"/>
<path d="M55.7357 15.2575C55.8533 15.4653 55.9591 15.6793 56.0528 15.8988L55.8869 15.5081C56.0935 16.0068 56.2351 16.5305 56.3069 17.0654L56.2483 16.6293C56.3191 17.1785 56.3191 17.7343 56.2483 18.2834L56.3069 17.8474C56.2356 18.3828 56.0946 18.9069 55.8869 19.4057L56.0559 19.016C55.8599 19.476 55.6063 19.909 55.3009 20.3053L55.557 19.9731C55.2367 20.3837 54.8666 20.7531 54.4553 21.072L54.7872 20.8147C54.356 21.1468 53.8841 21.4224 53.3831 21.6354L53.7751 21.4703C53.2839 21.6777 52.7681 21.8198 52.2402 21.8936L52.676 21.8351C52.5498 21.8519 52.424 21.8641 52.2962 21.8733C51.6359 21.8636 51.0388 22.2655 50.7985 22.8809C50.6967 23.0755 50.6478 23.2935 50.6575 23.5131C50.659 23.9476 50.8316 24.3638 51.138 24.672C51.444 24.9812 51.8615 25.1544 52.2962 25.1529C52.8236 25.1213 53.3465 25.0388 53.8581 24.9068C54.3616 24.7642 54.8509 24.5752 55.3197 24.3424C55.6741 24.1718 56.0116 23.968 56.3277 23.7347C56.7533 23.4316 57.1504 23.0898 57.5129 22.7138C57.8693 22.3328 58.1885 21.9186 58.4664 21.4769C58.7485 21.0098 58.9801 20.5147 59.1588 19.9991C59.3013 19.6033 59.4027 19.1937 59.4612 18.777C59.5533 18.2233 59.59 17.6619 59.5707 17.1006C59.5111 15.8729 59.1669 14.6762 58.5642 13.6054C58.3448 13.2392 57.995 12.9697 57.5847 12.852C57.3749 12.7843 57.1504 12.7741 56.9356 12.8225C56.7187 12.8322 56.5085 12.8994 56.3262 13.0176C55.9576 13.2346 55.6873 13.5856 55.5722 13.9977C55.4643 14.4246 55.5234 14.8764 55.7382 15.2605L55.7357 15.2575Z" fill="url(#paint0_linear)"/>
<path d="M48.0202 22.0333C47.8343 22.0261 47.649 22.0093 47.4637 21.9859L47.8781 22.0414C47.3242 21.9655 46.7831 21.8168 46.2684 21.5997L46.6395 21.7577C46.1248 21.5381 45.6396 21.2549 45.1952 20.9141L45.5109 21.1581C45.0873 20.83 44.706 20.4505 44.3756 20.0287L44.6215 20.3445C44.3048 19.9345 44.0421 19.4852 43.8395 19.0083L43.9973 19.3797C43.785 18.8698 43.6389 18.3349 43.5636 17.7883L43.6201 18.203C43.5417 17.6176 43.5417 17.0247 43.6201 16.4399L43.5621 16.8555C43.6389 16.3089 43.7855 15.7751 43.9978 15.2657L43.8415 15.637C43.9149 15.4638 43.9963 15.2947 44.0844 15.1286C44.2895 14.7613 44.3461 14.3294 44.2422 13.9218C44.0131 13.0899 43.1538 12.6014 42.3224 12.8306C42.3214 12.8312 42.3204 12.8312 42.3194 12.8317C41.9274 12.9412 41.5934 13.1984 41.3862 13.5489C41.1194 14.0431 40.9056 14.5637 40.7473 15.1026C40.5966 15.6487 40.5004 16.2081 40.4597 16.773C40.4235 17.2111 40.4317 17.6518 40.4836 18.0883C40.5381 18.6517 40.6495 19.2085 40.8155 19.7495C41.1449 20.7923 41.6993 21.75 42.4385 22.5549C42.7989 22.9421 43.195 23.2941 43.6221 23.6053C43.9459 23.8529 44.2911 24.0704 44.6546 24.2548C45.6992 24.7928 46.8477 25.0979 48.0212 25.1488C48.8831 25.1488 49.582 24.4499 49.582 23.587C49.582 23.1728 49.4176 22.7755 49.1249 22.4826C48.826 22.1988 48.433 22.0363 48.0212 22.0251L48.0202 22.0333Z" fill="url(#paint1_linear)"/>
<path d="M46.3219 11.2963C46.3927 11.1903 46.4665 11.0864 46.5454 10.9855L46.2894 11.3177C46.5912 10.931 46.9405 10.5831 47.3284 10.2831L46.9965 10.5403C47.4292 10.2092 47.9016 9.93411 48.4036 9.72168L48.0121 9.88673C48.5309 9.66972 49.0761 9.52148 49.6331 9.44608L49.1973 9.50467C49.7206 9.43692 50.2506 9.43692 50.7739 9.50467L50.3382 9.44608C50.8931 9.52148 51.4352 9.66921 51.952 9.8852L51.5605 9.72015C52.0721 9.93614 52.5537 10.2168 52.9936 10.5556L52.6621 10.3004C53.0485 10.6004 53.3963 10.9463 53.6981 11.3314L53.4441 10.9998C53.5368 11.1185 53.6228 11.2402 53.7048 11.3666C53.9272 11.7298 54.276 11.9983 54.6843 12.12C54.8945 12.1873 55.1185 12.1969 55.3333 12.149C55.5502 12.1399 55.7605 12.0731 55.9427 11.955C56.7242 11.498 56.9879 10.4934 56.5307 9.71098C56.2477 9.27237 55.9208 8.86331 55.5553 8.49042C55.1801 8.12109 54.7708 7.78845 54.333 7.49655C54.0056 7.27394 53.6579 7.08291 53.2955 6.92499C52.8108 6.70135 52.3068 6.52306 51.7896 6.39214C51.2688 6.27141 50.7378 6.20009 50.2037 6.17971C49.6611 6.17105 49.1194 6.21537 48.5854 6.31267C48.1837 6.37787 47.7891 6.48179 47.4073 6.6229C46.9038 6.8012 46.4176 7.02585 45.9554 7.29329C44.9703 7.88218 44.1298 8.684 43.495 9.64017C43.3768 9.82254 43.3096 10.0329 43.3 10.2499C43.2511 10.4664 43.2613 10.6926 43.329 10.904C43.4461 11.3151 43.7154 11.6656 44.0819 11.8841C44.4643 12.1057 44.9189 12.1653 45.3455 12.0492L45.737 11.8841C45.9803 11.742 46.183 11.5393 46.325 11.2958L46.3219 11.2963Z" fill="url(#paint2_linear)"/>
<defs>
<linearGradient id="paint0_linear" x1="55.116" y1="12.7924" x2="55.116" y2="25.1529" gradientUnits="userSpaceOnUse">
<stop stop-color="#00CCCD"/>
<stop offset="1" stop-color="#00BFC0"/>
</linearGradient>
<linearGradient id="paint1_linear" x1="45.0098" y1="12.7741" x2="45.0098" y2="25.1488" gradientUnits="userSpaceOnUse">
<stop stop-color="#F45D48"/>
<stop offset="1" stop-color="#FF6732"/>
</linearGradient>
<linearGradient id="paint2_linear" x1="50.0123" y1="6.17865" x2="50.0123" y2="12.1789" gradientUnits="userSpaceOnUse">
<stop stop-color="#FDC363"/>
<stop offset="1" stop-color="#FFBC4D"/>
</linearGradient>
</defs>
</svg>
